<svg width="90" height="90" viewBox="0 0 120 120" fill="none" xmlns="http://www.w3.org/2000/svg">
<rect width="120" height="120" rx="60" fill="black"/>
<path d="M39.4188 65.192C36.6828 65.192 35.1628 62.744 35.1628 59.24C35.1628 55.736 36.6828 53.288 39.4188 53.288C41.7068 53.288 43.1308 54.984 43.5468 57.592H42.1708C41.8348 55.704 40.9228 54.552 39.4188 54.552C37.4988 54.552 36.5548 56.44 36.5548 59.24C36.5548 62.04 37.4988 63.928 39.4188 63.928C41.0348 63.928 41.9628 62.6 42.2188 60.488H43.5948C43.2748 63.304 41.8188 65.192 39.4188 65.192ZM46.0993 65V53.48H47.4913V63.736H53.2833V65H46.0993ZM59.9958 65.192C57.2598 65.192 55.7398 62.744 55.7398 59.24C55.7398 55.736 57.2598 53.288 59.9958 53.288C62.7318 53.288 64.2517 55.736 64.2517 59.24C64.2517 62.744 62.7318 65.192 59.9958 65.192ZM59.9958 63.944C61.9158 63.944 62.8758 62.04 62.8758 59.24C62.8758 56.44 61.9158 54.552 59.9958 54.552C58.0758 54.552 57.1158 56.44 57.1158 59.24C57.1158 62.04 58.0758 63.944 59.9958 63.944ZM70.5643 65.192C68.0043 65.192 65.8763 64.008 65.8763 61.128H67.2843C67.2843 63.224 68.8683 63.912 70.5323 63.912C72.1803 63.912 73.3483 63.24 73.3483 61.816C73.3483 60.648 72.5963 60.216 70.0043 59.608C67.6523 59.048 66.2763 58.328 66.2763 56.264C66.2763 54.44 67.9083 53.288 70.1003 53.288C73.3163 53.288 74.5642 55.032 74.5642 57.064H73.1562C73.1562 55.432 72.1803 54.568 70.1003 54.568C68.6283 54.568 67.6843 55.224 67.6843 56.28C67.6843 57.352 67.9563 57.864 70.7723 58.472C73.9883 59.176 74.7563 60.264 74.7563 61.832C74.7563 63.864 73.1083 65.192 70.5643 65.192ZM76.8608 65V53.48H84.3968V54.744H78.2368V58.504H83.9328V59.752H78.2368V63.736H84.3328V65H76.8608Z" fill="white"/>
</svg>
