<svg width="31" height="32" viewBox="0 0 31 32" fill="none" xmlns="http://www.w3.org/2000/svg">
<path d="M30.9949 9.89906C28.8514 9.41222 26.8152 8.3252 25.1444 6.64316C23.4761 4.96112 22.4005 2.16115 21.9151 0C20.0578 1.18232 17.8555 2.61451 15.4949 2.61451C13.1343 2.61451 10.9346 1.18232 9.07467 0C8.59181 2.16115 7.51368 4.96112 5.84539 6.64574C4.17966 8.32778 2.14348 9.41222 0 9.89906C1.17266 11.7717 1.85223 13.9921 1.85223 16.3722C1.85223 18.7523 1.17266 20.9701 0 22.8454C2.14348 23.3322 4.17966 24.4192 5.8505 26.1013C7.51879 27.7833 8.59436 29.8388 9.07978 32C10.9371 30.8177 13.1394 30.1325 15.5 30.1325C17.8606 30.1325 20.0603 30.8177 21.9202 32C22.4031 29.8388 23.4812 27.7859 25.1495 26.1013C26.8178 24.4192 28.8565 23.3348 31 22.8454C29.8273 20.9727 29.1478 18.7523 29.1478 16.3722C29.1478 13.9921 29.8273 11.7743 31 9.89906H30.9949ZM13.3514 17.4129V21.493H11.5145V11.1664H19.3654V13.0184H13.354V15.5582H18.3767V17.4103H13.354L13.3514 17.4129ZM18.3179 21.5806C17.692 21.5806 17.1836 21.068 17.1836 20.4369C17.1836 19.8058 17.692 19.2932 18.3179 19.2932C18.9439 19.2932 19.4523 19.8058 19.4523 20.4369C19.4523 21.068 18.9439 21.5806 18.3179 21.5806Z" fill="black"/>
</svg>
