<svg width="76" height="148" viewBox="0 0 76 148" fill="none" xmlns="http://www.w3.org/2000/svg">
<g clip-path="url(#clip0_15_1464)">
<path d="M68.4632 17.9369C64.2494 16.9812 60.2443 14.8553 56.9648 11.5568C53.6853 8.26062 51.5701 4.23518 50.6169 0C46.9651 2.31898 42.6374 3.66079 37.9992 3.66079C33.3609 3.66079 29.0333 2.31898 25.3815 0C24.4306 4.23518 22.3154 8.26062 19.0336 11.5568C15.7541 14.8529 11.7489 16.9788 7.53516 17.9369C9.84243 21.6073 11.1775 25.9568 11.1775 30.621C11.1775 35.2852 9.84243 39.6324 7.53516 43.3027C11.7489 44.2584 15.7541 46.3844 19.0336 49.6829C22.3131 52.979 24.4283 57.0045 25.3815 61.2397C29.0333 58.9207 33.3609 57.5789 37.9992 57.5789C42.6374 57.5789 46.9651 58.9207 50.6169 61.2397C51.5677 57.0045 53.6829 52.979 56.9648 49.6829C60.2443 46.3868 64.2494 44.2608 68.4632 43.3027C66.1559 39.6324 64.8209 35.2828 64.8209 30.621C64.8209 25.9592 66.1559 21.6097 68.4632 17.9369ZM33.783 32.6564V40.6525H30.1715V20.418H45.6039V24.0502H33.7854V29.0266H43.6571V32.6564H33.7854H33.783ZM43.5456 40.8264C42.3126 40.8264 41.3143 39.8231 41.3143 38.5837C41.3143 37.3444 42.3126 36.341 43.5456 36.341C44.7787 36.341 45.777 37.3444 45.777 38.5837C45.777 39.8231 44.7787 40.8264 43.5456 40.8264Z" fill="#F5FFB2"/>
<path d="M56.3182 65.8871C47.9926 65.8871 40.8764 71.0828 38 78.4211C35.1094 71.047 27.9386 65.8371 19.5608 65.8871C8.70977 65.9515 0 74.9414 0 85.8499V148H20.2105V89.463L27.3979 138.791C28.1686 144.079 32.6812 147.998 37.9976 147.998C43.3141 147.998 47.8266 144.077 48.5973 138.791L55.7847 89.463V148H75.9953V85.6688C75.9953 74.7436 67.1835 65.8871 56.3135 65.8871H56.3182Z" fill="#F5FFB2"/>
</g>
<defs>
<clipPath id="clip0_15_1464">
<rect width="76" height="148" fill="white"/>
</clipPath>
</defs>
</svg>
