<svg width="1392" height="322" viewBox="0 0 1392 322" fill="none" xmlns="http://www.w3.org/2000/svg">
<path d="M0 263.241V7.6387H87.8336L104.634 124.276L122.319 7.6387H204.257V263.241H143.54V105.473L117.603 263.241H86.6547L60.7172 105.473V263.241H0Z" fill="black"/>
<path d="M257.735 266.179C235.04 266.179 219.124 249.726 219.124 221.228V75.2117H278.072V212.708C278.072 220.347 281.609 224.166 286.62 224.166C292.809 224.166 296.346 218.584 296.346 210.064V75.2117H355.295V263.241H296.052V234.155C290.746 255.015 276.304 266.179 257.735 266.179Z" fill="black"/>
<path d="M370.122 263.241V7.6387H429.071V263.241H370.122Z" fill="black"/>
<path d="M503.404 266.179C473.93 266.179 455.655 248.845 455.655 219.759V119.281H440.918V75.2117H455.655V25.2664H514.604V75.2117H537.594V119.281H514.604V205.069C514.604 215.352 519.615 220.934 529.341 220.934C531.11 220.934 532.878 220.641 534.941 220.347V259.128C527.278 263.535 516.373 266.179 503.404 266.179Z" fill="black"/>
<path d="M549.214 263.241V75.2117H608.162V263.241H549.214ZM578.393 63.7537C559.824 63.7537 546.266 49.3577 546.266 31.7299C546.266 14.6898 559.824 0 578.393 0C596.373 0 609.931 14.396 609.931 31.7299C609.931 49.6515 596.373 63.7537 578.393 63.7537Z" fill="black"/>
<path d="M622.957 319.062V75.2117H681.906V95.4836C686.916 80.7938 699.001 72.2737 714.622 72.2737C744.981 72.2737 765.024 107.235 765.024 169.226C765.024 231.217 744.981 266.179 714.622 266.179C699.001 266.179 686.916 257.659 681.906 242.969V319.062H622.957ZM691.338 226.516C699.885 226.516 704.012 208.007 704.012 169.226C704.012 130.445 699.885 111.936 691.338 111.936C682.79 111.936 678.664 130.445 678.664 169.226C678.664 208.007 682.79 226.516 691.338 226.516Z" fill="black"/>
<path d="M776.765 263.241V7.6387H835.714V263.241H776.765Z" fill="black"/>
<path d="M850.508 263.241V75.2117H909.457V263.241H850.508ZM879.688 63.7537C861.119 63.7537 847.561 49.3577 847.561 31.7299C847.561 14.6898 861.119 0 879.688 0C897.667 0 911.226 14.396 911.226 31.7299C911.226 49.6515 897.667 63.7537 879.688 63.7537Z" fill="black"/>
<path d="M996.169 266.179C951.368 266.179 921.305 227.398 921.305 169.226C921.305 111.055 951.368 72.2737 996.169 72.2737C1037.14 72.2737 1065.14 107.529 1064.55 158.356H1007.37C1007.37 126.038 1003.83 110.761 995.875 110.761C986.738 110.761 982.611 128.389 982.611 169.226C982.611 210.064 986.738 227.692 995.875 227.692C1003.83 227.692 1007.37 212.414 1007.37 180.097H1064.55C1065.14 230.923 1037.14 266.179 996.169 266.179Z" fill="black"/>
<path d="M1076.3 263.241V75.2117H1135.25V263.241H1076.3ZM1105.48 63.7537C1086.91 63.7537 1073.36 49.3577 1073.36 31.7299C1073.36 14.6898 1086.91 0 1105.48 0C1123.46 0 1137.02 14.396 1137.02 31.7299C1137.02 49.6515 1123.46 63.7537 1105.48 63.7537Z" fill="black"/>
<path d="M1209.59 266.179C1180.11 266.179 1161.84 248.845 1161.84 219.759V119.281H1147.1V75.2117H1161.84V25.2664H1220.79V75.2117H1243.78V119.281H1220.79V205.069C1220.79 215.352 1225.8 220.934 1235.52 220.934C1237.29 220.934 1239.06 220.641 1241.12 220.347V259.128C1233.46 263.535 1222.55 266.179 1209.59 266.179Z" fill="black"/>
<path d="M1290.9 322C1279.11 322 1268.8 320.531 1261.43 318.181V283.219C1264.97 283.807 1267.91 284.1 1271.15 284.1C1277.05 284.1 1281.77 282.925 1285.01 280.281C1288.25 277.637 1290.02 273.524 1290.02 267.354C1290.02 260.891 1288.25 253.252 1286.19 244.144L1248.16 75.2117H1309.18L1323.32 174.221L1337.47 75.2117H1392L1351.33 269.411C1347.49 288.214 1340.13 302.022 1327.75 311.423C1319.2 317.887 1307.41 322 1290.9 322Z" fill="black"/>
</svg>
