<svg width="1392" height="255" viewBox="0 0 1392 255" fill="none" xmlns="http://www.w3.org/2000/svg">
<path d="M0 255V0H65.2753L90.7415 105.517V0H148.113V255H96.5958L57.372 125.741V255H0Z" fill="black"/>
<path d="M162.862 255V0H284.632V48.6552H224.332V102L279.948 101.707V149.483H224.332V206.345H284.632V255H162.862Z" fill="black"/>
<path d="M293.435 255L321.828 126.914L293.435 0H356.076L372.175 83.8276L388.274 0H450.915L422.815 126.914L450.915 255H388.274L372.175 170.586L356.076 255H293.435Z" fill="black"/>
<path d="M458.109 0H598.612V49.2414H559.974V255H496.748V49.2414H458.109V0Z" fill="black"/>
<path d="M651.45 255V0H773.219V48.6552H712.92V102L768.535 101.707V149.483H712.92V206.345H773.219V255H651.45Z" fill="black"/>
<path d="M946.976 0L903.361 255H827.841L784.227 0H848.331L868.528 169.121L888.726 0H946.976Z" fill="black"/>
<path d="M956.599 255V0H1078.37V48.6552H1018.07V102L1073.68 101.707V149.483H1018.07V206.345H1078.37V255H956.599Z" fill="black"/>
<path d="M1091.56 255V0H1156.84L1182.3 105.517V0H1239.68V255H1188.16L1148.93 125.741V255H1091.56Z" fill="black"/>
<path d="M1251.5 0H1392V49.2414H1353.36V255H1290.14V49.2414H1251.5V0Z" fill="black"/>
</svg>
