<svg width="90" height="90" viewBox="0 0 120 120" fill="none" xmlns="http://www.w3.org/2000/svg">
<rect width="120" height="120" rx="60" fill="black"/>
<path d="M41.055 65V53.48H42.543L46.623 62.584V53.48H48.015V65H46.431L42.447 56.2V65H41.055ZM51.0795 65V53.48H58.6155V54.744H52.4555V58.504H58.1515V59.752H52.4555V63.736H58.5515V65H51.0795ZM68.416 65L65.152 60.344L61.856 65H60.24L64.336 59.176L60.336 53.48H62.032L65.184 57.96L68.336 53.48H69.952L66 59.128L70.112 65H68.416ZM74.7605 65V54.712H70.9685V53.48H79.9765V54.712H76.1845V65H74.7605Z" fill="white"/>
</svg>
