<svg width="1388" height="234" viewBox="0 0 1388 234" fill="none" xmlns="http://www.w3.org/2000/svg">
<path d="M0 231.371V2.62921H68.3674C112.543 2.62921 137.524 31.8135 137.524 82.8202C137.524 134.09 112.543 163.274 68.3674 163.274H55.7457V231.371H0ZM62.5825 126.991C75.2041 126.991 80.9891 113.319 80.9891 82.8202C80.9891 52.5843 75.2041 38.9123 62.5825 38.9123H55.7457V126.991H62.5825Z" fill="black"/>
<path d="M128.261 231.371L163.759 2.62921H242.119L277.617 231.371H219.768L216.35 201.135H184.269L180.851 231.371H128.261ZM189.791 150.391H210.828L200.309 53.1101L189.791 150.391Z" fill="black"/>
<path d="M343.759 234C305.105 234 278.021 206.656 277.758 167.218H328.508C328.771 182.993 334.293 191.933 343.496 191.933C351.384 191.933 356.38 185.097 356.38 174.054C356.38 161.434 350.07 151.18 336.659 141.452L324.037 132.249C292.746 109.375 282.228 89.9191 282.228 66.782C282.228 26.818 309.838 0 348.492 0C387.935 0 412.126 26.2921 412.126 68.8854H361.902C362.165 50.218 356.906 39.964 347.177 39.964C340.077 39.964 334.818 46.5371 334.818 56.5281C334.818 68.6225 342.444 78.6135 356.643 88.6045L370.054 98.0697C402.397 120.944 410.548 141.715 410.548 164.063C410.548 205.604 382.15 234 343.759 234Z" fill="black"/>
<path d="M414.662 2.62921H540.879V46.8H506.169V231.371H449.372V46.8H414.662V2.62921Z" fill="black"/>
<path d="M588.344 231.371V2.62921H697.732V46.2741H643.564V94.1258L693.524 93.8629V136.719H643.564V187.726H697.732V231.371H588.344Z" fill="black"/>
<path d="M853.821 2.62921L814.641 231.371H746.8L707.62 2.62921H765.206L783.35 154.335L801.494 2.62921H853.821Z" fill="black"/>
<path d="M862.466 231.371V2.62921H971.853V46.2741H917.685V94.1258L967.646 93.8629V136.719H917.685V187.726H971.853V231.371H862.466Z" fill="black"/>
<path d="M983.706 231.371V2.62921H1042.34L1065.22 97.2809V2.62921H1116.76V231.371H1070.48L1035.24 115.422V231.371H983.706Z" fill="black"/>
<path d="M1127.38 2.62921H1253.6V46.8H1218.89V231.371H1162.09V46.8H1127.38V2.62921Z" fill="black"/>
<path d="M1319.63 234C1280.98 234 1253.89 206.656 1253.63 167.218H1304.38C1304.64 182.993 1310.17 191.933 1319.37 191.933C1327.26 191.933 1332.25 185.097 1332.25 174.054C1332.25 161.434 1325.94 151.18 1312.53 141.452L1299.91 132.249C1268.62 109.375 1258.1 89.9191 1258.1 66.782C1258.1 26.818 1285.71 0 1324.37 0C1363.81 0 1388 26.2921 1388 68.8854H1337.78C1338.04 50.218 1332.78 39.964 1323.05 39.964C1315.95 39.964 1310.69 46.5371 1310.69 56.5281C1310.69 68.6225 1318.32 78.6135 1332.52 88.6045L1345.93 98.0697C1378.27 120.944 1386.42 141.715 1386.42 164.063C1386.42 205.604 1358.02 234 1319.63 234Z" fill="black"/>
</svg>
