<svg width="90" height="90" viewBox="0 0 120 120" fill="none" xmlns="http://www.w3.org/2000/svg">
<rect width="120" height="120" rx="60" fill="black"/>
<path d="M40.799 65V53.48H44.303C47.023 53.48 48.271 55.096 48.271 57.016C48.271 58.936 47.023 60.552 44.303 60.552H42.191V65H40.799ZM44.319 59.304C46.079 59.304 46.847 58.296 46.847 57C46.847 55.704 46.079 54.728 44.319 54.728H42.191V59.304H44.319ZM51.0795 65V53.48H54.4075C57.1275 53.48 58.3755 55.096 58.3755 57.048C58.3755 58.872 57.3035 60.456 54.8555 60.568L58.6475 65H56.9195L53.1755 60.6H52.4715V65H51.0795ZM54.4075 59.336C56.1835 59.336 56.9515 58.312 56.9515 57.032C56.9515 55.704 56.1835 54.712 54.4075 54.712H52.4715V59.336H54.4075ZM61.392 65V53.48H68.928V54.744H62.768V58.504H68.464V59.752H62.768V63.736H68.864V65H61.392ZM74.4885 65L71.4645 53.48H72.8725L75.3525 63.064L78.0245 53.48H79.4645L76.2485 65H74.4885Z" fill="white"/>
</svg>
