<svg width="90" height="90" viewBox="0 0 120 120" fill="none" xmlns="http://www.w3.org/2000/svg">
<rect width="120" height="120" rx="60" fill="black"/>
<path d="M40.767 55V43.48H44.095C46.815 43.48 48.063 45.096 48.063 47.048C48.063 48.872 46.991 50.456 44.543 50.568L48.335 55H46.607L42.863 50.6H42.159V55H40.767ZM44.095 49.336C45.871 49.336 46.639 48.312 46.639 47.032C46.639 45.704 45.871 44.712 44.095 44.712H42.159V49.336H44.095ZM51.0795 55V43.48H58.6155V44.744H52.4555V48.504H58.1515V49.752H52.4555V53.736H58.5515V55H51.0795ZM60.704 55L64.4 43.48H65.904L69.6 55H68.144L67.12 51.704H63.168L62.144 55H60.704ZM63.552 50.504H66.752L65.152 45.368L63.552 50.504ZM71.2725 55V43.48H74.0245C77.8325 43.48 79.6725 46.04 79.6725 49.24C79.6725 52.44 77.8325 55 74.0245 55H71.2725ZM74.0565 53.72C76.9525 53.72 78.2325 51.768 78.2325 49.24C78.2325 46.712 76.9525 44.76 74.0565 44.76H72.6645V53.72H74.0565ZM40.799 75V63.48H42.575L44.543 69.784L46.495 63.48H48.271V75H46.895V65.96L45.103 71.8H43.983L42.175 65.976V75H40.799ZM54.8395 75.192C52.1035 75.192 50.5835 72.744 50.5835 69.24C50.5835 65.736 52.1035 63.288 54.8395 63.288C57.5755 63.288 59.0955 65.736 59.0955 69.24C59.0955 72.744 57.5755 75.192 54.8395 75.192ZM54.8395 73.944C56.7595 73.944 57.7195 72.04 57.7195 69.24C57.7195 66.44 56.7595 64.552 54.8395 64.552C52.9195 64.552 51.9595 66.44 51.9595 69.24C51.9595 72.04 52.9195 73.944 54.8395 73.944ZM61.392 75V63.48H64.72C67.44 63.48 68.688 65.096 68.688 67.048C68.688 68.872 67.616 70.456 65.168 70.568L68.96 75H67.232L63.488 70.6H62.784V75H61.392ZM64.72 69.336C66.496 69.336 67.264 68.312 67.264 67.032C67.264 65.704 66.496 64.712 64.72 64.712H62.784V69.336H64.72ZM71.7045 75V63.48H79.2405V64.744H73.0805V68.504H78.7765V69.752H73.0805V73.736H79.1765V75H71.7045Z" fill="white"/>
</svg>
